<svg width="127" height="13" viewBox="0 0 127 13" fill="none" xmlns="http://www.w3.org/2000/svg">
<path d="M62.0939 10.9893L62.0645 12.9891L62.0939 10.9893ZM125.481 3.94135C126.553 3.67583 127.207 2.59141 126.941 1.51923C126.676 0.447048 125.591 -0.206878 124.519 0.0586452L125.481 3.94135ZM1 2C0.546352 3.94787 0.546621 3.94793 0.547031 3.94803C0.547356 3.94811 0.547908 3.94823 0.548557 3.94838C0.549857 3.94869 0.551719 3.94912 0.554142 3.94968C0.558988 3.95081 0.566075 3.95245 0.575379 3.95461C0.593987 3.95892 0.621464 3.96528 0.657618 3.97362C0.729927 3.9903 0.836947 4.0149 0.977148 4.0469C1.25755 4.11091 1.67069 4.20455 2.20432 4.32368C3.27156 4.56194 4.82098 4.90222 6.75455 5.31144C10.6211 6.12975 16.027 7.22442 22.1875 8.33039C34.4776 10.5368 49.8847 12.8095 62.0645 12.9891L62.1234 8.98952C50.287 8.815 35.1472 6.59306 22.8943 4.39334C16.7833 3.29625 11.4188 2.20999 7.58276 1.39812C5.66504 0.992261 4.13013 0.65515 3.07586 0.419786C2.54875 0.302109 2.14184 0.20988 1.86738 0.147225C1.73015 0.115898 1.62604 0.0919659 1.55657 0.0759442C1.52184 0.0679333 1.49577 0.0619003 1.47855 0.0579095C1.46994 0.055914 1.46355 0.0544293 1.45939 0.0534631C1.45731 0.0529799 1.45579 0.0526266 1.45483 0.0524038C1.45435 0.0522923 1.45406 0.0522236 1.45382 0.0521678C1.45366 0.0521318 1.45365 0.0521286 1 2ZM62.0645 12.9891C74.8248 13.1772 90.7102 10.8992 103.323 8.6011C109.646 7.4488 115.181 6.28511 119.135 5.40932C121.112 4.97134 122.696 4.60514 123.786 4.34808C124.331 4.21954 124.753 4.11827 125.04 4.04893C125.183 4.01426 125.292 3.98757 125.367 3.96945C125.404 3.96039 125.432 3.95347 125.451 3.94876C125.46 3.94641 125.468 3.94461 125.473 3.94337C125.475 3.94275 125.477 3.94227 125.478 3.94194C125.479 3.94177 125.48 3.94162 125.48 3.94154C125.48 3.94143 125.481 3.94135 125 2C124.519 0.0586452 124.519 0.0586423 124.519 0.0586749C124.519 0.0587333 124.519 0.0588015 124.518 0.0589179C124.517 0.0591508 124.516 0.0595253 124.514 0.0600401C124.509 0.0610698 124.503 0.0626613 124.494 0.0648054C124.477 0.0690937 124.45 0.0755923 124.415 0.0842288C124.345 0.101502 124.239 0.127325 124.099 0.161116C123.82 0.2287 123.405 0.32815 122.868 0.454812C121.794 0.708149 120.228 1.07027 118.27 1.50397C114.353 2.37152 108.869 3.52458 102.606 4.66589C90.043 6.95495 74.4753 9.17163 62.1234 8.98952L62.0645 12.9891Z" fill="#FF6542"/>
</svg>
